# xmcd CD database file
#
# Track frame offsets:
#	150
#	15086
#	27046
#	39613
#	49327
#	57404
#	64012
#	76198
#	90147
#	99763
#	113177
#	126904
#	137493
#	147099
#	155864
#	165669
#
# Disc length: 2347 seconds
#
# Revision: 1
# Processed by: cddbd v1.5.1PL2 Copyright (c) Steve Scherf et al.
# Submitted via: CDex 1.50beta10
#
DISCID=c1092910
DTITLE=Willie Nelson - Broken Promises
DYEAR=2004
DGENRE=Country
TTITLE0=Face Of A Fighter
TTITLE1=Happiness lives Next Door
TTITLE2=Any Old Arms Won't Do
TTITLE3=I Didn't Sleep A Wink
TTITLE4=Half A Man
TTITLE5=Both Ends Of The Candle
TTITLE6=I Can't Find The Time
TTITLE7=Will You Remember Mine
TTITLE8=Ashamed
TTITLE9=Everything But You
TTITLE10=Home Is Where You're Happy
TTITLE11=Go Away
TTITLE12=Healing Hands Of Time
TTITLE13=Right From Wrong
TTITLE14=Broken Promises
TTITLE15=I Feel So Sorry For Him
EXTD=YEAR: 2004
EXTT0=
EXTT1=
EXTT2=
EXTT3=
EXTT4=
EXTT5=
EXTT6=
EXTT7=
EXTT8=
EXTT9=
EXTT10=
EXTT11=
EXTT12=
EXTT13=
EXTT14=
EXTT15=
PLAYORDER=
